# xmcd
# Copyright (C) 1995-1998 Ti Kan
#
# Track frame offsets:
#       150
#       16120
#       29380
#       43885
#       63902
#       76205
#       109407
#       127140
#       142467
#       155500
#       168560
#       185007
#       196900
#       208282
#       219330
#       252662
#       267632
#       284350
#       303355
#
# Disc length: 4459 seconds
#
# Revision: 0
# Processed by: cddbd v1.5.2PL0 Copyright (c) Steve Scherf et al.
# Submitted via: CD-Import v1.0
#
DISCID=30116913
DTITLE=Last Drive - Their Sory ... So Far
DYEAR=1989
DGENRE=
TTITLE0=I Love Cindy
TTITLE1=Heatwave 88
TTITLE2=Joe Espositoes Gun
TTITLE3=Devil May Care
TTITLE4=Gone Gone Gone
TTITLE5=Its All Over Now Baby Blue
TTITLE6=Blue City Shores
TTITLE7=Whisper Her Name
TTITLE8=Baby Its Real
TTITLE9=Me N My Wings
TTITLE10=Valley Of Death
TTITLE11=Poison
TTITLE12=Misirlou
TTITLE13=This Fire Inside
TTITLE14=Blue Moon
TTITLE15=Sidewalk Stroll
TTITLE16=The Shade Of Fever
TTITLE17=Every Night
TTITLE18=Repulsion
EXTD=
EXTT0=
EXTT1=
EXTT2=
EXTT3=
EXTT4=
EXTT5=
EXTT6=
EXTT7=
EXTT8=
EXTT9=
EXTT10=
EXTT11=
EXTT12=
EXTT13=
EXTT14=
EXTT15=
EXTT16=
EXTT17=
EXTT18=
PLAYORDER=
